Coordinates
version=1
nRows=19
nColumns=63
inDegrees=yes

Units are S.I. units (second, meters, Newtons, ...)
If the header above contains a line with 'inDegrees', this indicates whether rotational values are in degrees (yes) or radians (no).

endheader
time	pelvis_tilt	pelvis_list	pelvis_rotation	pelvis_tx	pelvis_ty	pelvis_tz	hip_flexion_r	hip_adduction_r	hip_rotation_r	knee_angle_r	knee_angle_r_beta	ankle_angle_r	subtalar_angle_r	mtp_angle_r	hip_flexion_l	hip_adduction_l	hip_rotation_l	knee_angle_l	knee_angle_l_beta	ankle_angle_l	subtalar_angle_l	mtp_angle_l	L5_S1_Flex_Ext	L5_S1_Lat_Bending	L5_S1_axial_rotation	L4_L5_Flex_Ext	L4_L5_Lat_Bending	L4_L5_axial_rotation	L3_L4_Flex_Ext	L3_L4_Lat_Bending	L3_L4_axial_rotation	L2_L3_Flex_Ext	L2_L3_Lat_Bending	L2_L3_axial_rotation	L1_L2_Flex_Ext	L1_L2_Lat_Bending	L1_L2_axial_rotation	L1_T12_Flex_Ext	L1_T12_Lat_Bending	L1_T12_axial_rotation	Abs_r3	Abs_r2	Abs_r1	Abs_t1	Abs_t2	neck_flexion	neck_bending	neck_rotation	arm_flex_r	arm_add_r	arm_rot_r	elbow_flex_r	pro_sup_r	wrist_flex_r	wrist_dev_r	arm_flex_l	arm_add_l	arm_rot_l	elbow_flex_l	pro_sup_l	wrist_flex_l	wrist_dev_l
5.966102	-4.818381	2.921229	74.454876	0.357485	0.830837	0.699144	4.036381	-3.377479	24.667540	3.801617	0.066351	28.137556	-12.583892	0.000000	0.699915	2.297496	-2.305070	1.085325	0.018942	26.824539	-9.915895	0.000000	-0.006512	-0.463375	2.457220	-0.012094	-0.616288	2.610796	-0.010699	-1.126649	2.610796	-0.007443	-1.126649	2.150068	-0.006047	-0.944913	1.996491	-0.003721	-0.717767	1.842915	-0.046516	-5.241786	13.666321	0.000000	0.000000	24.208744	3.536942	9.692639	-2.630606	-30.545570	-1.242839	102.999399	51.958962	-8.006739	5.340057	10.329001	-25.141750	-13.638288	108.288744	88.884458	-9.571993	14.059554
5.983051	-4.745400	2.820041	74.275508	0.356955	0.830981	0.700077	4.308640	-3.261763	24.069868	4.081237	0.071231	28.215052	-11.753232	0.000000	0.862303	2.204379	-2.623116	1.178390	0.020567	26.719368	-9.670730	0.000000	-0.004605	-0.433977	2.432801	-0.008552	-0.577189	2.584851	-0.007565	-1.055171	2.584851	-0.005263	-1.055171	2.128701	-0.004276	-0.884965	1.976651	-0.002631	-0.672230	1.824601	-0.032892	-4.909232	13.530511	0.000000	0.000000	24.265346	3.608225	10.559619	-2.426559	-31.406519	-2.187761	104.079010	50.622475	-8.042961	5.018898	11.299507	-26.179462	-13.649084	108.586569	88.781028	-10.556137	13.141497
6.000000	-4.652324	2.692948	74.137080	0.356368	0.831110	0.701001	4.602315	-3.128831	23.462644	4.322556	0.075443	28.317713	-10.882919	0.000000	1.055038	2.088712	-2.895279	1.277785	0.022302	26.643714	-9.457981	0.000000	-0.003763	-0.402687	2.393783	-0.006988	-0.535573	2.543394	-0.006182	-0.979093	2.543394	-0.004301	-0.979093	2.094560	-0.003494	-0.821159	1.944949	-0.002150	-0.623762	1.795337	-0.026878	-4.555274	13.313503	0.000000	0.000000	24.341045	3.689659	11.504573	-2.302195	-32.037387	-3.136094	105.167021	49.546568	-8.064405	4.789553	12.010393	-26.959539	-13.762259	108.939603	88.657586	-11.475634	11.806678
6.016949	-4.544938	2.551845	74.094822	0.355694	0.831228	0.701878	4.891281	-2.992931	22.828634	4.508443	0.078687	28.436977	-10.014547	0.000000	1.271874	1.959788	-3.091432	1.388033	0.024226	26.611030	-9.237388	0.000000	-0.004786	-0.371395	2.339106	-0.008889	-0.493956	2.485300	-0.007863	-0.903011	2.485300	-0.005470	-0.903011	2.046717	-0.004445	-0.757349	1.900523	-0.002735	-0.575291	1.754329	-0.034188	-4.201298	13.009403	0.000000	0.000000	24.438060	3.795680	12.507102	-2.262647	-32.435674	-4.050861	106.236339	48.807421	-8.150900	4.574500	12.511266	-27.448895	-13.949497	109.330627	88.537073	-12.157896	10.220964
6.033898	-4.421881	2.398919	74.135924	0.354965	0.831322	0.702690	5.169083	-2.852329	22.229236	4.631027	0.080827	28.557542	-9.206754	0.000000	1.508652	1.815766	-3.227199	1.507936	0.026318	26.613232	-9.008384	0.000000	-0.005989	-0.340781	2.280724	-0.011123	-0.453239	2.423269	-0.009840	-0.828575	2.423269	-0.006845	-0.828575	1.995633	-0.005562	-0.694920	1.853088	-0.003422	-0.527870	1.710543	-0.042780	-3.854982	12.684701	0.000000	0.000000	24.559633	3.846524	13.423029	-2.314406	-32.606354	-4.930514	107.256895	48.309285	-8.261432	4.388026	12.878898	-27.622367	-14.132557	109.716212	88.445432	-12.532407	8.606266
6.050847	-4.282283	2.251699	74.282591	0.354168	0.831396	0.703426	5.408102	-2.713082	21.657184	4.683980	0.081751	28.664948	-8.489491	0.000000	1.748308	1.660558	-3.290823	1.634459	0.028527	26.658596	-8.751298	0.000000	-0.008864	-0.311652	2.221411	-0.016462	-0.414497	2.360250	-0.014563	-0.757751	2.360250	-0.010131	-0.757751	1.943735	-0.008231	-0.635521	1.804897	-0.005065	-0.482749	1.666059	-0.063318	-3.525471	12.354824	0.000000	0.000000	24.706244	3.855511	14.220977	-2.451553	-32.549301	-5.759093	108.208836	48.008355	-8.441367	4.211698	13.212631	-27.470267	-14.215677	110.009976	88.398287	-12.579399	7.117535
6.067797	-4.154610	2.109038	74.565948	0.353354	0.831424	0.704051	5.601107	-2.599748	21.129919	4.662054	0.081368	28.733500	-7.958346	0.000000	1.995386	1.519599	-3.217001	1.763221	0.030774	26.721312	-8.516451	0.000000	-0.010101	-0.289835	2.160043	-0.018759	-0.385480	2.295045	-0.016595	-0.704704	2.295045	-0.011545	-0.704704	1.890037	-0.009380	-0.591031	1.755035	-0.005772	-0.448954	1.620032	-0.072151	-3.278667	12.013509	0.000000	0.000000	24.858175	3.848550	14.748151	-2.675826	-32.207457	-6.590708	109.030465	48.068122	-8.480793	4.161771	13.612316	-27.065273	-14.045454	110.136662	88.332964	-12.401271	5.875452
6.084746	-4.004173	1.989017	74.908613	0.352471	0.831407	0.704505	5.741394	-2.483293	20.551159	4.610464	0.080468	28.820825	-7.401518	0.000000	2.220810	1.366303	-3.238672	1.908284	0.033306	26.890646	-8.074354	0.000000	-0.012333	-0.267619	2.111242	-0.022903	-0.355933	2.243195	-0.020262	-0.650688	2.243195	-0.014095	-0.650688	1.847337	-0.011452	-0.545728	1.715384	-0.007047	-0.414542	1.583432	-0.088093	-3.027358	11.742097	0.000000	0.000000	25.050414	3.751679	15.106647	-3.011616	-31.703779	-7.300348	109.768773	47.252196	-8.633800	4.110806	14.033332	-26.303249	-13.675770	110.068059	88.414357	-11.998699	5.002275
6.101695	-3.855786	1.887595	75.334516	0.351609	0.831317	0.704747	5.812339	-2.383558	20.043657	4.502791	0.078589	28.872836	-7.024491	0.000000	2.418494	1.220590	-3.189112	2.045437	0.035700	27.112248	-7.607223	0.000000	-0.012793	-0.250544	2.070750	-0.023757	-0.333224	2.200172	-0.021017	-0.609173	2.200172	-0.014621	-0.609173	1.811907	-0.011879	-0.510909	1.682485	-0.007310	-0.388093	1.553063	-0.091376	-2.834204	11.516893	0.000000	0.000000	25.256530	3.613520	15.163829	-3.468347	-30.955308	-8.015714	110.355519	46.333264	-8.720106	4.261127	14.483890	-25.343366	-12.948551	109.818215	88.428684	-11.526591	4.512448
6.118644	-3.716935	1.808978	75.832535	0.350786	0.831139	0.704750	5.812629	-2.306719	19.601636	4.352642	0.075968	28.907023	-6.819889	0.000000	2.578050	1.092048	-3.033330	2.166205	0.037807	27.370766	-7.175275	0.000000	-0.011086	-0.239900	2.033198	-0.020588	-0.319067	2.160273	-0.018213	-0.583294	2.160273	-0.012670	-0.583294	1.779049	-0.010294	-0.489205	1.651974	-0.006335	-0.371606	1.524899	-0.079186	-2.713800	11.308040	0.000000	0.000000	25.469916	3.457484	14.889000	-4.009894	-29.993299	-8.699576	110.724125	45.173455	-8.661806	4.598791	14.886089	-24.309046	-11.804882	109.410610	88.286232	-11.087763	4.263880
6.135593	-3.592946	1.750505	76.390207	0.350032	0.830858	0.704506	5.740751	-2.256062	19.296574	4.152011	0.072466	28.906664	-6.871390	0.000000	2.694736	0.984379	-2.719546	2.259013	0.039427	27.638276	-6.861360	0.000000	-0.006703	-0.236094	1.989911	-0.012447	-0.314006	2.114280	-0.011012	-0.574040	2.114280	-0.007660	-0.574040	1.741172	-0.006224	-0.481444	1.616802	-0.003830	-0.365710	1.492433	-0.047876	-2.670748	11.067285	0.000000	0.000000	25.686508	3.313085	14.325655	-4.571090	-28.837306	-9.312791	110.819425	44.603459	-8.513776	5.108591	15.170981	-23.317302	-10.268870	108.868905	88.021833	-10.558270	4.181839
6.152542	-3.493623	1.711795	77.008697	0.349326	0.830463	0.704029	5.606728	-2.241692	19.068493	3.919232	0.068404	28.914378	-7.097522	0.000000	2.771113	0.908595	-2.227842	2.324428	0.040569	27.899772	-6.693306	0.000000	-0.000141	-0.240080	1.939437	-0.000262	-0.319307	2.060652	-0.000232	-0.583731	2.060652	-0.000161	-0.583731	1.697008	-0.000131	-0.489572	1.575793	-0.000081	-0.371884	1.454578	-0.001008	-2.715837	10.786569	0.000000	0.000000	25.903682	3.188556	13.467808	-5.160081	-27.512148	-9.861478	110.644563	44.588480	-8.291383	5.811029	15.355552	-22.463356	-8.253794	108.180757	87.721586	-10.074797	4.212607
6.169492	-3.398716	1.683382	77.664637	0.348665	0.829950	0.703358	5.417618	-2.240561	18.965216	3.645492	0.063626	28.897945	-7.549366	0.000000	2.813064	0.842314	-1.575927	2.357991	0.041155	28.141543	-6.679504	0.000000	0.009790	-0.247794	1.877229	0.018182	-0.329566	1.994556	0.016084	-0.602486	1.994556	0.011189	-0.602486	1.642576	0.009091	-0.505302	1.525249	0.005594	-0.383833	1.407922	0.069931	-2.803095	10.440586	0.000000	0.000000	26.115511	3.079143	12.425968	-5.729492	-26.067255	-10.273795	110.156934	45.370466	-7.945130	6.636548	15.414938	-21.809723	-5.809198	107.337812	87.591284	-9.532490	4.275274
6.186441	-3.328497	1.663731	78.342785	0.348055	0.829300	0.702567	5.193141	-2.266495	18.986341	3.349309	0.058456	28.873968	-8.227893	0.000000	2.832752	0.803490	-0.779768	2.364879	0.041275	28.359766	-6.816700	0.000000	0.022179	-0.261103	1.806043	0.041188	-0.347267	1.918921	0.036438	-0.634845	1.918921	0.025348	-0.634845	1.580288	0.020595	-0.532441	1.467410	0.012673	-0.404448	1.354533	0.158421	-2.953646	10.044672	0.000000	0.000000	26.338501	2.975451	11.200145	-6.300035	-24.522421	-10.520733	109.380931	47.058907	-7.539480	7.565882	15.372768	-21.410276	-2.953231	106.361440	87.638562	-8.901841	4.513751
6.203390	-3.294893	1.660281	78.995391	0.347533	0.828524	0.701687	4.943686	-2.328473	19.164449	3.049985	0.053232	28.842128	-9.108856	0.000000	2.823693	0.805079	0.108960	2.341409	0.040865	28.534670	-7.115959	0.000000	0.036457	-0.281220	1.730289	0.067704	-0.374023	1.838433	0.059895	-0.683759	1.838433	0.041667	-0.683759	1.514003	0.033854	-0.573465	1.405860	0.020831	-0.435610	1.297717	0.260408	-3.181221	9.623351	0.000000	0.000000	26.563026	2.870804	9.751103	-6.865826	-22.923792	-10.519629	108.314963	49.561356	-7.076233	8.619660	15.204016	-21.274618	0.221588	105.283255	87.742006	-8.173287	5.015470
6.220339	-3.299391	1.659528	79.587990	0.347127	0.827611	0.700827	4.703027	-2.416711	19.460347	2.770578	0.048356	28.818142	-10.110049	0.000000	2.809021	0.840739	1.026189	2.295565	0.040065	28.677770	-7.526693	0.000000	0.053394	-0.306596	1.656646	0.099158	-0.407773	1.760187	0.087721	-0.745458	1.760187	0.061024	-0.745458	1.449566	0.049581	-0.625211	1.346025	0.030509	-0.474917	1.242485	0.381386	-3.468276	9.213770	0.000000	0.000000	26.767876	2.835932	8.216621	-7.388571	-21.361058	-10.101441	106.936094	52.504396	-6.597712	9.593567	14.950006	-21.402152	3.700787	104.058434	87.545032	-7.411387	5.681296
6.237288	-3.349360	1.658361	80.084364	0.346872	0.826571	0.700023	4.488983	-2.531154	19.867451	2.530050	0.044158	28.815289	-11.185763	0.000000	2.791128	0.915883	1.924530	2.220572	0.038756	28.787511	-8.048345	0.000000	0.072443	-0.337214	1.589902	0.134534	-0.448494	1.689271	0.119016	-0.819902	1.689271	0.082795	-0.819902	1.391164	0.067270	-0.687646	1.291795	0.041394	-0.522344	1.192427	0.517452	-3.814629	8.842558	0.000000	0.000000	26.961870	2.841443	6.595825	-7.810319	-19.869427	-9.170662	105.249327	55.756870	-6.132519	10.497162	14.587124	-21.757260	7.349477	102.708077	87.008933	-6.631694	6.441431
6.254237	-3.456792	1.666611	80.450589	0.346805	0.825432	0.699307	4.304760	-2.680329	20.429802	2.340353	0.040847	28.833743	-12.345621	0.000000	2.765749	1.042806	2.777152	2.125425	0.037096	28.872295	-8.685403	0.000000	0.090878	-0.373992	1.538889	0.168769	-0.497409	1.635070	0.149303	-0.909324	1.635070	0.103864	-0.909324	1.346528	0.084389	-0.762644	1.250347	0.051928	-0.579314	1.154167	0.649131	-4.230672	8.558840	0.000000	0.000000	27.146975	2.848304	4.882809	-8.049909	-18.483571	-7.635837	103.262337	59.063116	-5.653091	11.305874	14.096227	-22.278148	11.033700	101.292242	86.080538	-5.897164	7.312945
6.271186	-3.598965	1.660037	80.674361	0.346926	0.824221	0.698735	4.177306	-2.830647	21.103753	2.207145	0.038522	28.868267	-13.527723	0.000000	2.752390	1.189777	3.573090	2.006778	0.035025	28.933785	-9.430052	0.000000	0.110737	-0.412044	1.506055	0.205649	-0.548019	1.600183	0.181929	-1.001844	1.600183	0.126561	-1.001844	1.317798	0.102830	-0.840240	1.223669	0.063275	-0.638256	1.129541	0.790981	-4.661126	8.376224	0.000000	0.000000	27.296692	2.852274	3.240831	-8.000649	-17.264185	-5.393226	100.988936	62.162506	-5.233549	11.987527	13.419064	-22.888199	14.596287	99.770975	84.640581	-5.183001	7.875540
